<?xml version="1.0" encoding="UTF-8" standalone="no"?>
<svg
   xmlns:dc="http://purl.org/dc/elements/1.1/"
   xmlns:cc="http://creativecommons.org/ns#"
   xmlns:rdf="http://www.w3.org/1999/02/22-rdf-syntax-ns#"
   xmlns:svg="http://www.w3.org/2000/svg"
   xmlns="http://www.w3.org/2000/svg"
   viewBox="0 0 472 566.93335"
   height="566.93335"
   width="472"
   xml:space="preserve"
   id="svg2"
   version="1.1"><metadata
     id="metadata8"><rdf:RDF><cc:Work
         rdf:about=""><dc:format>image/svg+xml</dc:format><dc:type
           rdf:resource="http://purl.org/dc/dcmitype/StillImage" /></cc:Work></rdf:RDF></metadata><defs
     id="defs6"><clipPath
       id="clipPath68"
       clipPathUnits="userSpaceOnUse"><path
         id="path66"
         d="m 1554.18,2251.31 c 0,-159.48 -129.29,-288.75 -288.75,-288.75 -159.48,0 -288.75,129.27 -288.75,288.75 0,159.47 129.27,288.75 288.75,288.75 159.46,0 288.75,-129.28 288.75,-288.75" /></clipPath><clipPath
       id="clipPath112"
       clipPathUnits="userSpaceOnUse"><path
         id="path110"
         d="m 1781.19,3710.77 c 0,-159.98 -129.69,-289.66 -289.67,-289.66 -160,0 -289.68,129.68 -289.68,289.66 0,160 129.68,289.69 289.68,289.69 159.98,0 289.67,-129.69 289.67,-289.69" /></clipPath><clipPath
       id="clipPath158"
       clipPathUnits="userSpaceOnUse"><path
         id="path156"
         d="m 2685.86,3086.08 c 0,-166.27 -134.77,-301.04 -301,-301.04 -166.26,0 -301.02,134.77 -301.02,301.04 0,166.23 134.76,301.01 301.02,301.01 166.23,0 301,-134.78 301,-301.01" /></clipPath></defs><g
     transform="matrix(1.3333333,0,0,-1.3333333,0,566.93333)"
     id="g10"><g
       transform="scale(0.1)"
       id="g12"><path
         id="path14"
         style="fill:#9cdff9;fill-opacity:1;fill-rule:nonzero;stroke:none"
         d="M 0,0 H 3540 V 4251.98 H 0 Z" /><path
         id="path16"
         style="fill:#935b43;fill-opacity:1;fill-rule:nonzero;stroke:none"
         d="m 2633.34,1346.62 c 24.95,-76.17 56.45,-279.06 70.79,-365.87 4.88,-29.73 1.1,-111.211 -19.34,-152.809 94.15,-37.48 188.8,-4.41 289.86,2.149 -4.05,53.269 -7.79,92.738 -10.9,112.359 -22.25,138.831 -163.86,431.321 -189.46,485.881 -25.69,54.58 -217.61,292.4 -265.93,344.15 -48.29,51.76 -99.93,-46.19 -58.13,-127.57 41.8,-81.4 158.11,-222.13 183.11,-298.29" /><path
         id="path18"
         style="fill:#c27a5a;fill-opacity:1;fill-rule:nonzero;stroke:none"
         d="m 2681.32,1419.64 c 25,-76.17 70.15,-256.28 84.45,-343.08 4.88,-29.73 -34.11,-140.58 -54.52,-182.181 94.12,-37.469 188.79,-4.399 289.85,2.16 -4.07,53.262 -7.78,92.742 -10.93,112.361 -22.23,138.83 -163.85,431.31 -189.49,485.89 -25.61,54.57 -217.56,292.38 -265.87,344.13 -48.29,51.77 -99.96,-46.18 -58.13,-127.57 41.8,-81.4 179.67,-215.55 204.64,-291.71" /><path
         id="path20"
         style="fill:#d38563;fill-opacity:1;fill-rule:nonzero;stroke:none"
         d="m 2742.03,1646.04 c 24.96,-76.17 56.51,-279.06 70.8,-365.88 4.89,-29.73 1.13,-111.21 -19.31,-152.81 94.13,-37.46 188.78,-4.4 289.84,2.16 -4.06,53.27 -7.75,92.73 -10.92,112.36 -22.21,138.81 -163.84,431.31 -189.46,485.89 -25.62,54.56 -217.61,292.37 -265.86,344.13 -48.31,51.76 -99.98,-46.18 -58.15,-127.58 41.79,-81.38 158.06,-222.11 183.06,-298.27" /><path
         id="path22"
         style="fill:#d38563;fill-opacity:1;fill-rule:nonzero;stroke:none"
         d="m 2690.93,955.27 c 0,0 -11.25,106.86 27.63,157.55 38.86,50.69 236,322.79 274.89,300.57 38.85,-22.22 105.5,-345.75 105.5,-345.75 L 2690.93,955.27" /><path
         id="path24"
         style="fill:#a7a5a6;fill-opacity:1;fill-rule:nonzero;stroke:none"
         d="m 2682.34,2365.46 h -9.98 v -155.44 h 9.98 c 12.39,0 22.44,11.38 22.44,25.45 v 104.54 c 0,14.06 -10.05,25.45 -22.44,25.45" /><path
         id="path26"
         style="fill:#a7a5a6;fill-opacity:1;fill-rule:nonzero;stroke:none"
         d="m 2682.34,2182.76 h -9.98 v -155.42 h 9.98 c 12.39,0 22.44,11.37 22.44,25.42 v 104.57 c 0,14.04 -10.05,25.43 -22.44,25.43" /><path
         id="path28"
         style="fill:#a7a5a6;fill-opacity:1;fill-rule:nonzero;stroke:none"
         d="m 2682.34,1417.63 h -9.98 v -155.41 h 9.98 c 12.39,0 22.44,11.39 22.44,25.43 v 104.56 c 0,14.06 -10.05,25.42 -22.44,25.42" /><path
         id="path30"
         style="fill:#e9e9e9;fill-opacity:1;fill-rule:nonzero;stroke:none"
         d="m 2677.34,1104.07 c 0,-27.11 -21.99,-49.09 -49.04,-49.09 h -556 c -27.1,0 -49.07,21.98 -49.07,49.09 v 1318.17 c 0,27.11 21.97,49.09 49.07,49.09 h 556 c 27.05,0 49.04,-21.98 49.04,-49.09 V 1104.07" /><path
         id="path32"
         style="fill:#6fc1c2;fill-opacity:1;fill-rule:nonzero;stroke:none"
         d="m 2648.31,1247.18 c 0,-22.2 -20.33,-40.19 -45.42,-40.19 H 2097.7 c -25.07,0 -45.42,17.99 -45.42,40.19 v 1105.37 c 0,22.18 20.35,40.16 45.42,40.16 h 505.19 c 25.09,0 45.42,-17.98 45.42,-40.16 V 1247.18" /><path
         id="path34"
         style="fill:#65b0b1;fill-opacity:1;fill-rule:nonzero;stroke:none"
         d="M 2602.89,1206.99 H 2097.7 c -25.07,0 -45.42,17.99 -45.42,40.19 v 1105.37 c 0,22.18 20.35,40.16 45.42,40.16 h 57.21 c -30.4,-108.37 -37.88,-223.34 -22.39,-336.81 27.97,-205.55 137.16,-565.47 310.14,-685.87 49.97,-34.78 76.84,-61.85 134.75,-80.41 22.61,-7.24 46.64,-13.12 70.9,-15.97 v -26.47 c 0,-22.2 -20.33,-40.19 -45.42,-40.19" /><path
         id="path36"
         style="fill:#a7a5a6;fill-opacity:1;fill-rule:nonzero;stroke:none"
         d="m 2400.4,1094.61 c 0,-7.95 -6.44,-14.4 -14.39,-14.4 h -71.42 c -7.96,0 -14.37,6.45 -14.37,14.4 v 71.41 c 0,7.95 6.41,14.4 14.37,14.4 h 71.42 c 7.95,0 14.39,-6.45 14.39,-14.4 v -71.41" /><path
         id="path38"
         style="fill:#a7a5a6;fill-opacity:1;fill-rule:nonzero;stroke:none"
         d="m 2438.34,2433.74 h -157.48 v 37.59 h 157.48 v -37.59" /><path
         id="path40"
         style="fill:#f89d75;fill-opacity:1;fill-rule:nonzero;stroke:none"
         d="m 2476.96,1052.27 c 104.9,-17.77 230.49,-54.321 283.26,-47.97 52.74,6.33 185.03,191.05 170.75,277.85 -14.31,86.82 -45.83,289.71 -70.83,365.88 -24.97,76.16 -141.23,216.89 -183.05,298.28 -41.83,81.4 9.83,179.33 58.13,127.58 48.27,-51.76 240.27,-289.58 265.88,-344.14 25.65,-54.58 167.26,-347.07 189.48,-485.9 C 3212.77,1105.04 3346.04,0 3346.04,0 h -435.9 l 30.52,427.582 c 0,0 -158.25,83.277 -219.31,166.578 -45.33,61.809 -105.38,190.02 -152.73,224.891 -47.34,34.879 -144.69,108.289 -209.78,145.769 -65.09,37.49 13.25,105.24 118.12,87.45" /><path
         id="path42"
         style="fill:#183a59;fill-opacity:1;fill-rule:nonzero;stroke:none"
         d="m 1870,1380.11 -87.27,55.34 95.45,150.49 87.27,-55.33 -95.45,-150.5" /><path
         id="path44"
         style="fill:#c13331;fill-opacity:1;fill-rule:nonzero;stroke:none"
         d="M 1760.65,1449.45 1446.77,954.5 c -17.08,-26.879 -1.48,-67.34 34.81,-90.352 36.27,-23.007 79.54,-19.859 96.58,7.024 l 313.89,494.938 -131.4,83.34" /><path
         id="path46"
         style="fill:#183a59;fill-opacity:1;fill-rule:nonzero;stroke:none"
         d="m 2437.15,1616.83 c -119.47,-188.36 -368.97,-244.22 -557.35,-124.75 -188.34,119.45 -244.18,368.97 -124.73,557.33 119.46,188.36 368.97,244.21 557.33,124.74 188.34,-119.46 244.22,-368.96 124.75,-557.32" /><path
         id="path48"
         style="fill:#65bed9;fill-opacity:1;fill-rule:nonzero;stroke:none"
         d="m 2393,1644.84 c -104,-163.99 -321.23,-212.64 -485.19,-108.63 -163.98,103.98 -212.6,321.23 -108.61,485.21 103.98,163.97 321.25,212.59 485.19,108.6 163.99,-104 212.6,-321.22 108.61,-485.18" /><path
         id="path50"
         style="fill:#539ab1;fill-opacity:1;fill-rule:nonzero;stroke:none"
         d="m 1956.8,1555.79 c -164.01,104 -212.62,321.22 -108.6,485.2 36,56.79 85.64,99.72 141.88,127.27 -76.23,-24.04 -144.73,-74.06 -190.88,-146.84 -103.99,-163.98 -55.37,-381.23 108.61,-485.21 107.15,-67.98 237.11,-70.71 343.32,-18.67 -95.5,-30.15 -203.16,-19.59 -294.33,38.25" /><path
         id="path52"
         style="fill:#ffffff;fill-opacity:1;fill-rule:nonzero;stroke:none"
         d="m 2380.89,1943.89 c 30.07,-78.13 27.16,-151.96 -6.51,-164.95 -33.68,-12.95 -43.93,63.09 -74.01,141.22 -30.04,78.12 -68.59,128.78 -34.92,141.74 33.71,12.96 85.39,-39.88 115.44,-118.01" /><path
         id="path54"
         style="fill:#d93b5a;fill-opacity:1;fill-rule:nonzero;stroke:none"
         d="m 2194.34,2009.48 c -41.76,0 -78.19,-22.38 -98.26,-55.74 -20.04,33.36 -56.48,55.74 -98.25,55.74 -63.34,0 -114.69,-51.35 -114.69,-114.69 0,-158.98 212.94,-307.58 212.94,-307.58 0,0 212.98,175.96 212.98,307.58 0,63.34 -51.36,114.69 -114.72,114.69" /><path
         id="path56"
         style="fill:#ffffff;fill-opacity:1;fill-rule:nonzero;stroke:none"
         d="M 1665.95,1829.02 H 287.395 v 543.67 H 1665.95 v -543.67" /><path
         id="path58"
         style="fill:#ffffff;fill-opacity:1;fill-rule:nonzero;stroke:none"
         d="M 485.898,1914.94 1340,1449.45 838.809,2011.56 Z" /><path
         id="path60"
         style="fill:#fddd10;fill-opacity:1;fill-rule:nonzero;stroke:none"
         d="m 1554.18,2251.31 c 0,-159.48 -129.29,-288.75 -288.75,-288.75 -159.48,0 -288.75,129.27 -288.75,288.75 0,159.47 129.27,288.75 288.75,288.75 159.46,0 288.75,-129.28 288.75,-288.75" /><g
         id="g62"><g
           clip-path="url(#clipPath68)"
           id="g64"><path
             id="path70"
             style="fill:#ef2e32;fill-opacity:1;fill-rule:nonzero;stroke:none"
             d="m 1375.3,2223.83 c 2.83,37.96 7.47,97.07 7.47,97.07 34.24,76.62 -20.74,188.57 -67.68,156.6 -50.3,67.09 -219.12,-8.01 -168.28,-155.57 0,0 2.16,-49.51 -6.72,-95.31 -12.75,-65.57 -35.71,-136.35 -14.47,-152.58 29.87,-22.87 249.68,-25.43 263.07,-8.34 21.74,27.68 -16.22,120.18 -13.39,158.13" /><path
             id="path72"
             style="fill:#1a332e;fill-opacity:1;fill-rule:nonzero;stroke:none"
             d="m 1424.74,2082.5 c -18.16,22.61 -161.78,72.28 -161.78,72.28 0,0 -140.62,-54.94 -161.81,-72.28 -21.13,-17.37 -29.08,-127.07 -29.08,-127.07 h 377.61 c 0,0 -6.83,104.43 -24.94,127.07" /><path
             id="path74"
             style="fill:#d89461;fill-opacity:1;fill-rule:nonzero;stroke:none"
             d="m 1307.48,2128.26 c 0,0 -5.5,-26.64 -44.5,-26.64 -38.97,0 -44.48,26.64 -44.48,26.64 0,0 10.84,21.56 0,46.87 -10.84,25.3 102.25,30.41 88.98,0 -13.28,-30.44 0,-46.87 0,-46.87" /><path
             id="path76"
             style="fill:#f9aa78;fill-opacity:1;fill-rule:nonzero;stroke:none"
             d="m 1388.69,2298.96 c 0,-20.08 -14.23,-47.65 -23.84,-47.65 -9.57,0 -17.33,16.27 -17.33,36.36 0,20.06 9.78,30.41 17.33,36.33 9.31,7.27 23.84,0 23.84,-25.04" /><path
             id="path78"
             style="fill:#f9aa78;fill-opacity:1;fill-rule:nonzero;stroke:none"
             d="m 1140.09,2298.96 c 0,-20.08 14.24,-47.65 23.83,-47.65 9.58,0 17.36,16.27 17.36,36.36 0,20.06 -9.81,30.41 -17.36,36.33 -9.29,7.27 -23.83,0 -23.83,-25.04" /><path
             id="path80"
             style="fill:#f9aa78;fill-opacity:1;fill-rule:nonzero;stroke:none"
             d="m 1264.79,2458.08 c -67.45,0 -97.25,-47.24 -97.25,-117.71 0,-35.9 0,-63.97 0,-88.26 0,-61.37 70.94,-113.87 93.32,-113.87 22.41,0 101.17,61.39 101.17,119.53 0,22.99 0,49.45 0,82.6 0,70.47 -29.8,117.71 -97.24,117.71" /><path
             id="path82"
             style="fill:#ef2e32;fill-opacity:1;fill-rule:nonzero;stroke:none"
             d="m 1362.03,2290.08 2.82,36.6 c 14.74,71.25 -32.02,140.17 -99.42,140.17 -67.43,0 -119.75,-75.19 -101.68,-146.44 l 3.79,-41.64 c 0,0 12.99,10.93 15.24,30.7 1.73,15.12 7.56,76.19 7.56,76.19 l 7.4,-36.05 81.35,-5.35 13.91,28.55 5.58,-29.84 25.84,-1.68 16.66,49.92 c 0,0 2.33,-43.36 7.5,-76.04 3.24,-20.43 13.45,-25.09 13.45,-25.09" /></g></g><path
         id="path84"
         style="fill:#3d4d57;fill-opacity:1;fill-rule:nonzero;stroke:none"
         d="M 915.906,2177.07 H 434.324 v 95.76 h 481.582 v -95.76" /><path
         id="path86"
         style="fill:#3d4d57;fill-opacity:1;fill-rule:nonzero;stroke:none"
         d="M 915.906,2108.08 H 434.324 v 30.84 h 481.582 v -30.84" /><path
         id="path88"
         style="fill:#3d4d57;fill-opacity:1;fill-rule:nonzero;stroke:none"
         d="M 915.906,2028.1 H 434.324 v 30.86 h 481.582 v -30.86" /><path
         id="path90"
         style="fill:#3d4d57;fill-opacity:1;fill-rule:nonzero;stroke:none"
         d="M 915.906,1925.88 H 434.324 v 30.86 h 481.582 v -30.86" /><path
         id="path92"
         style="fill:#ffffff;fill-opacity:1;fill-rule:nonzero;stroke:none"
         d="M 1892.05,3280.11 H 513.484 v 543.67 H 1892.05 v -543.67" /><path
         id="path94"
         style="fill:#ffffff;fill-opacity:1;fill-rule:nonzero;stroke:none"
         d="m 711.992,3366.03 252.696,-523.16 100.222,619.76 z" /><path
         id="path96"
         style="fill:#3d4d57;fill-opacity:1;fill-rule:nonzero;stroke:none"
         d="M 1141.99,3628.16 H 660.43 v 95.76 h 481.56 v -95.76" /><path
         id="path98"
         style="fill:#3d4d57;fill-opacity:1;fill-rule:nonzero;stroke:none"
         d="M 1141.99,3559.15 H 660.43 v 30.86 h 481.56 v -30.86" /><path
         id="path100"
         style="fill:#3d4d57;fill-opacity:1;fill-rule:nonzero;stroke:none"
         d="M 1141.99,3479.19 H 660.43 v 30.86 h 481.56 v -30.86" /><path
         id="path102"
         style="fill:#3d4d57;fill-opacity:1;fill-rule:nonzero;stroke:none"
         d="M 1141.99,3376.96 H 660.43 v 30.86 h 481.56 v -30.86" /><path
         id="path104"
         style="fill:#922295;fill-opacity:1;fill-rule:nonzero;stroke:none"
         d="m 1781.19,3710.77 c 0,-159.98 -129.69,-289.66 -289.67,-289.66 -160,0 -289.68,129.68 -289.68,289.66 0,160 129.68,289.69 289.68,289.69 159.98,0 289.67,-129.69 289.67,-289.69" /><g
         id="g106"><g
           clip-path="url(#clipPath112)"
           id="g108"><path
             id="path114"
             style="fill:#15355f;fill-opacity:1;fill-rule:nonzero;stroke:none"
             d="m 1645.59,3541.44 c -18.19,22.67 -162.3,72.5 -162.3,72.5 0,0 -141.06,-55.12 -162.29,-72.5 -21.25,-17.44 -29.19,-127.5 -29.19,-127.5 h 378.81 c 0,0 -6.82,104.78 -25.03,127.5" /><path
             id="path116"
             style="fill:#d89461;fill-opacity:1;fill-rule:nonzero;stroke:none"
             d="m 1527.97,3587.36 c 0,0 -3.01,-14.48 -20.14,-22.11 -6.15,-2.76 -14.16,-37.89 -24.51,-37.89 -10.92,0 -19.24,35.35 -25.54,38.35 -16.21,7.78 -19.09,21.65 -19.09,21.65 0,0 10.9,21.62 0,47.01 -10.86,25.37 102.59,30.52 89.28,0 -13.32,-30.53 0,-47.01 0,-47.01" /><path
             id="path118"
             style="fill:#1e1111;fill-opacity:1;fill-rule:nonzero;stroke:none"
             d="m 1585.17,3688.41 c 8.3,37.29 18.33,92.19 18.33,92.19 34.37,76.85 -1.27,192.73 -67.91,157.11 -82.47,75.31 -212.94,-30.02 -168.81,-156.08 0,0 5.35,-57.69 13.92,-94.45 9.65,-41.29 80.86,-72.01 102.59,-73.24 21.75,-1.19 93.08,34.96 101.88,74.47" /><path
             id="path120"
             style="fill:#f9aa78;fill-opacity:1;fill-rule:nonzero;stroke:none"
             d="m 1609.44,3758.59 c 0,-20.14 -14.27,-47.82 -23.89,-47.82 -9.64,0 -17.43,16.35 -17.43,36.47 0,20.14 9.85,30.55 17.43,36.46 9.31,7.31 23.89,0 23.89,-25.11" /><path
             id="path122"
             style="fill:#f9aa78;fill-opacity:1;fill-rule:nonzero;stroke:none"
             d="m 1360.04,3758.59 c 0,-20.14 14.27,-47.82 23.91,-47.82 9.6,0 17.42,16.35 17.42,36.47 0,20.14 -9.87,30.55 -17.42,36.46 -9.33,7.31 -23.91,0 -23.91,-25.11" /><path
             id="path124"
             style="fill:#f9aa78;fill-opacity:1;fill-rule:nonzero;stroke:none"
             d="m 1485.14,3918.23 c -67.64,0 -97.56,-47.42 -97.56,-118.1 0,-36.02 0,-64.18 0,-88.54 0,-61.58 71.15,-114.23 93.63,-114.23 22.46,0 101.5,61.58 101.5,119.92 0,23.04 0,49.61 0,82.85 0,70.68 -29.91,118.1 -97.57,118.1" /><path
             id="path126"
             style="fill:#1e1111;fill-opacity:1;fill-rule:nonzero;stroke:none"
             d="m 1582.71,3749.68 6.07,51.58 c 0,70.7 -35.98,123.38 -103.64,123.38 -67.64,0 -101.03,-52.68 -101.03,-123.38 l 3.47,-62.93 c 0,0 8.02,13.52 7.31,33.44 -1.64,45.39 30.13,49.45 67.16,56.5 58.32,11.16 74.72,46.16 74.72,46.16 0,0 19.13,-6.51 31.35,-35 7.9,-18.44 9.75,-46.68 9.12,-58.23 -0.6,-11.54 5.47,-31.52 5.47,-31.52" /><path
             id="path128"
             style="fill:#ae1319;fill-opacity:1;fill-rule:nonzero;stroke:none"
             d="m 1419.02,3739.76 c -22.25,2.67 -27.36,25.49 -27.36,39.53 0,8.85 13.99,17.17 36.41,17.17 22.39,0 40.57,-7.29 40.57,-15.61 0,-35.92 -28.08,-43.71 -49.62,-41.09 z m 8.69,61.5 c -26.19,0 -42.54,-9.72 -42.54,-20.06 0,-16.4 5.97,-43.04 31.97,-46.19 25.14,-3.03 57.97,6.08 57.97,48.03 0,9.71 -21.24,18.22 -47.4,18.22" /><path
             id="path130"
             style="fill:#ae1319;fill-opacity:1;fill-rule:nonzero;stroke:none"
             d="m 1491.52,3772.39 c 0,0 -1.22,6.39 -9.88,6.39 -5.91,0 -7.42,-7.01 -7.42,-7.01 l -3.12,18.48 c 0,0 4.33,-3.73 7.19,-3.73 1.46,0 4.96,-0.73 7.92,0 2.95,0.72 5.31,3.73 5.31,3.73 v -17.86" /><path
             id="path132"
             style="fill:#ae1319;fill-opacity:1;fill-rule:nonzero;stroke:none"
             d="m 1388.8,3762.38 c 0,0 -9.41,0.66 -9.41,5.48 0,4.83 0,6.98 0,14.55 0,7.62 9.41,5.18 9.41,5.18 v -25.21" /><path
             id="path134"
             style="fill:#ae1319;fill-opacity:1;fill-rule:nonzero;stroke:none"
             d="m 1493.77,3780.85 c 0,8.32 18.19,15.61 40.59,15.61 22.41,0 36.4,-8.32 36.4,-17.17 0,-14.04 -5.13,-36.86 -27.34,-39.53 -21.54,-2.62 -49.65,5.17 -49.65,41.09 z m -6.47,2.19 c 0,-41.95 32.81,-51.06 57.98,-48.03 25.97,3.15 31.96,29.79 31.96,46.19 0,10.34 -16.34,20.06 -42.53,20.06 -26.19,0 -47.41,-8.51 -47.41,-18.22" /><path
             id="path136"
             style="fill:#ae1319;fill-opacity:1;fill-rule:nonzero;stroke:none"
             d="m 1573.6,3762.38 c 0,0 9.41,0.66 9.41,5.48 0,4.83 0,6.98 0,14.55 0,7.62 -9.41,5.18 -9.41,5.18 v -25.21" /></g></g><path
         id="path138"
         style="fill:#ffffff;fill-opacity:1;fill-rule:nonzero;stroke:none"
         d="M 2785.39,2642.27 H 1406.82 v 543.65 h 1378.57 v -543.65" /><path
         id="path140"
         style="fill:#ffffff;fill-opacity:1;fill-rule:nonzero;stroke:none"
         d="m 1605.34,2728.17 269.75,-414.26 83.16,510.88 z" /><path
         id="path142"
         style="fill:#3d4d57;fill-opacity:1;fill-rule:nonzero;stroke:none"
         d="m 2035.34,2990.3 h -481.57 v 95.78 h 481.57 v -95.78" /><path
         id="path144"
         style="fill:#3d4d57;fill-opacity:1;fill-rule:nonzero;stroke:none"
         d="m 2035.34,2921.31 h -481.57 v 30.86 h 481.57 v -30.86" /><path
         id="path146"
         style="fill:#3d4d57;fill-opacity:1;fill-rule:nonzero;stroke:none"
         d="m 2035.34,2841.35 h -481.57 v 30.84 h 481.57 v -30.84" /><path
         id="path148"
         style="fill:#3d4d57;fill-opacity:1;fill-rule:nonzero;stroke:none"
         d="m 2035.34,2739.1 h -481.57 v 30.86 h 481.57 v -30.86" /><path
         id="path150"
         style="fill:#a48ccd;fill-opacity:1;fill-rule:nonzero;stroke:none"
         d="m 2685.86,3086.08 c 0,-166.27 -134.77,-301.04 -301,-301.04 -166.26,0 -301.02,134.77 -301.02,301.04 0,166.23 134.76,301.01 301.02,301.01 166.23,0 301,-134.78 301,-301.01" /><g
         id="g152"><g
           clip-path="url(#clipPath158)"
           id="g154"><path
             id="path160"
             style="fill:#351f17;fill-opacity:1;fill-rule:nonzero;stroke:none"
             d="m 2242.97,2985.45 c 25.21,-56.99 232.58,-62.79 262.21,-6.19 -34.75,23.65 -7.31,113.09 -7.31,113.09 l 9.32,66.25 c 21.13,84.66 -51.82,211.78 -123.95,166.95 -42.19,41.78 -146.7,-47.56 -122.03,-165.86 l 0.49,-54.14 c 0,0 21.13,-100.06 -18.73,-120.1" /><path
             id="path162"
             style="fill:#6772c1;fill-opacity:1;fill-rule:nonzero;stroke:none"
             d="m 2550.95,2910.08 c -18.94,23.57 -168.66,75.37 -168.66,75.37 0,0 -146.59,-57.28 -168.66,-75.37 -22.06,-18.09 -30.34,-132.46 -30.34,-132.46 h 393.65 c 0,0 -7.1,108.87 -25.99,132.46" /><path
             id="path164"
             style="fill:#d89461;fill-opacity:1;fill-rule:nonzero;stroke:none"
             d="m 2428.71,2957.81 c 0,0 -5.74,-27.79 -46.39,-27.79 -40.62,0 -46.36,27.79 -46.36,27.79 0,0 11.31,22.47 0,48.83 -11.31,26.39 106.56,31.72 92.75,0 -13.83,-31.72 0,-48.83 0,-48.83" /><path
             id="path166"
             style="fill:#f9aa78;fill-opacity:1;fill-rule:nonzero;stroke:none"
             d="m 2513.36,3135.74 c 0,-20.91 -14.82,-49.66 -24.82,-49.66 -10.02,0 -18.11,16.95 -18.11,37.89 0,20.92 10.23,31.72 18.11,37.87 9.66,7.6 24.82,0 24.82,-26.1" /><path
             id="path168"
             style="fill:#f9aa78;fill-opacity:1;fill-rule:nonzero;stroke:none"
             d="m 2254.2,3135.74 c 0,-20.91 14.84,-49.66 24.84,-49.66 10,0 18.1,16.95 18.1,37.89 0,20.92 -10.23,31.72 -18.1,37.87 -9.66,7.6 -24.84,0 -24.84,-26.1" /><path
             id="path170"
             style="fill:#f9aa78;fill-opacity:1;fill-rule:nonzero;stroke:none"
             d="m 2384.2,3301.63 c -70.29,0 -101.37,-49.24 -101.37,-122.72 0,-37.44 0,-66.68 0,-91.99 0,-63.99 73.93,-118.73 97.29,-118.73 23.36,0 105.47,63.98 105.47,124.61 0,23.96 0,51.54 0,86.11 0,73.48 -31.08,122.72 -101.39,122.72" /><path
             id="path172"
             style="fill:#351f17;fill-opacity:1;fill-rule:nonzero;stroke:none"
             d="m 2485.59,3126.49 2.95,38.14 c 15.31,74.28 -33.38,146.14 -103.68,146.14 -70.29,0 -124.8,-78.4 -105.99,-152.66 l 3.96,-43.42 c 0,0 13.54,11.41 15.88,31.99 0,0 79.05,40.18 83.81,114.73 25.18,-62.99 89.04,-108.75 89.04,-108.75 3.37,-21.31 14.03,-26.17 14.03,-26.17" /><path
             id="path174"
             style="fill:#ae1319;fill-opacity:1;fill-rule:nonzero;stroke:none"
             d="m 2321.84,3107.6 c -23.13,2.79 -28.44,26.48 -28.44,41.09 0,9.18 14.55,17.84 37.83,17.84 23.28,0 42.17,-7.56 42.17,-16.22 0,-37.32 -29.18,-45.42 -51.56,-42.71 z m 9.02,63.93 c -27.19,0 -44.18,-10.12 -44.18,-20.84 0,-17.05 6.21,-44.73 33.22,-48.01 26.14,-3.15 60.22,6.33 60.22,49.9 0,10.1 -22.04,18.95 -49.26,18.95" /><path
             id="path176"
             style="fill:#ae1319;fill-opacity:1;fill-rule:nonzero;stroke:none"
             d="m 2397.19,3141.53 c 0,0 -1.27,6.64 -10.28,6.64 -6.13,0 -7.71,-7.29 -7.71,-7.29 l -3.24,19.18 c 0,0 4.49,-3.87 7.5,-3.87 1.5,0 5.13,-0.74 8.2,0 3.05,0.77 5.53,3.87 5.53,3.87 v -18.53" /><path
             id="path178"
             style="fill:#ae1319;fill-opacity:1;fill-rule:nonzero;stroke:none"
             d="m 2290.47,3131.12 c 0,0 -9.81,0.7 -9.81,5.7 0,5.02 0,7.23 0,15.12 0,7.89 9.81,5.37 9.81,5.37 v -26.19" /><path
             id="path180"
             style="fill:#ae1319;fill-opacity:1;fill-rule:nonzero;stroke:none"
             d="m 2399.53,3150.31 c 0,8.66 18.87,16.22 42.15,16.22 23.3,0 37.85,-8.66 37.85,-17.84 0,-14.61 -5.33,-38.3 -28.44,-41.09 -22.38,-2.71 -51.56,5.39 -51.56,42.71 z m -6.74,2.27 c 0,-43.57 34.1,-53.05 60.24,-49.9 27.01,3.28 33.24,30.96 33.24,48.01 0,10.72 -17,20.84 -44.21,20.84 -27.22,0 -49.27,-8.85 -49.27,-18.95" /><path
             id="path182"
             style="fill:#ae1319;fill-opacity:1;fill-rule:nonzero;stroke:none"
             d="m 2482.47,3131.12 c 0,0 9.8,0.7 9.8,5.7 0,5.02 0,7.23 0,15.12 0,7.89 -9.8,5.37 -9.8,5.37 v -26.19" /></g></g></g></g></svg>